<mxfile host="app.diagrams.net" modified="2024-10-22T23:03:11.171Z" agent="Mozilla/5.0 (Macintosh; Intel Mac OS X 10_15_7) AppleWebKit/537.36 (KHTML, like Gecko) Chrome/129.0.0.0 Safari/537.36" version="24.0.7" etag="oefhXCCwvADNkm-YkD7E" type="github">
  <diagram name="第 1 页" id="NdXCcv2actjiAubsrKYr">
    <mxGraphModel>
      <root>
        <mxCell id="0" />
        <mxCell id="1" parent="0" />
      </root>
    </mxGraphModel>
  </diagram>
</mxfile>
